<?xml version="1.0" encoding="UTF-8" standalone="no"?>
<svg
   xml:space="preserve"
   width="1024"
   height="1024"
   fill="none"
   version="1.1"
   id="svg18"
   sodipodi:docname="install.svg"
   inkscape:version="1.4.2 (ebf0e940d0, 2025-05-08)"
   xmlns:inkscape="http://www.inkscape.org/namespaces/inkscape"
   xmlns:sodipodi="http://sodipodi.sourceforge.net/DTD/sodipodi-0.dtd"
   xmlns="http://www.w3.org/2000/svg"
   xmlns:svg="http://www.w3.org/2000/svg"><sodipodi:namedview
   id="namedview18"
   pagecolor="#ffffff"
   bordercolor="#000000"
   borderopacity="0.25"
   inkscape:showpageshadow="2"
   inkscape:pageopacity="0.0"
   inkscape:pagecheckerboard="0"
   inkscape:deskcolor="#d1d1d1"
   inkscape:zoom="0.57452"
   inkscape:cx="369.87"
   inkscape:cy="544.8"
   inkscape:window-width="1920"
   inkscape:window-height="1011"
   inkscape:window-x="26"
   inkscape:window-y="23"
   inkscape:window-maximized="0"
   inkscape:current-layer="svg18" />
  <defs
   id="defs8">
    <linearGradient
   id="a"
   x1="36.45"
   x2="11.82"
   y1="47.83"
   y2="5.175"
   gradientTransform="translate(0 -100) scale(16.668)"
   gradientUnits="userSpaceOnUse">
      <stop
   offset="0"
   stop-color="COLOR_ACCENT"
   id="stop1" />
      <stop
   offset="1"
   stop-color="COLOR_ACCENT_LIGHTER"
   id="stop2" />
    </linearGradient>
    <linearGradient
   id="e"
   x1="49.939"
   x2="49.939"
   y1=".258"
   y2="99.742"
   gradientUnits="userSpaceOnUse">
      <stop
   stop-color="white"
   id="stop3" />
      <stop
   offset="1"
   stop-color="white"
   stop-opacity="0"
   id="stop4" />
    </linearGradient>
    <filter
   id="c"
   width="116.73"
   height="92.246"
   x="-8.394"
   y="15.829"
   color-interpolation-filters="sRGB"
   filterUnits="userSpaceOnUse">
      <feFlood
   flood-opacity="0"
   result="BackgroundImageFix"
   id="feFlood4" />
      <feColorMatrix
   in="SourceAlpha"
   values="0 0 0 0 0 0 0 0 0 0 0 0 0 0 0 0 0 0 127 0"
   id="feColorMatrix4" />
      <feOffset
   id="feOffset4" />
      <feGaussianBlur
   stdDeviation="4.167"
   id="feGaussianBlur4" />
      <feColorMatrix
   values="0 0 0 0 0 0 0 0 0 0 0 0 0 0 0 0 0 0 0.25 0"
   id="feColorMatrix5" />
      <feBlend
   in2="BackgroundImageFix"
   mode="overlay"
   result="effect1_dropShadow"
   id="feBlend5" />
      <feBlend
   in="SourceGraphic"
   in2="effect1_dropShadow"
   result="shape"
   id="feBlend6" />
    </filter>
    <filter
   id="d"
   width="47.917"
   height="116.15"
   x="60.417"
   y="-8.076"
   color-interpolation-filters="sRGB"
   filterUnits="userSpaceOnUse">
      <feFlood
   flood-opacity="0"
   result="BackgroundImageFix"
   id="feFlood6" />
      <feColorMatrix
   in="SourceAlpha"
   values="0 0 0 0 0 0 0 0 0 0 0 0 0 0 0 0 0 0 127 0"
   id="feColorMatrix6" />
      <feOffset
   id="feOffset6" />
      <feGaussianBlur
   stdDeviation="4.167"
   id="feGaussianBlur6" />
      <feColorMatrix
   values="0 0 0 0 0 0 0 0 0 0 0 0 0 0 0 0 0 0 0.25 0"
   id="feColorMatrix7" />
      <feBlend
   in2="BackgroundImageFix"
   mode="overlay"
   result="effect1_dropShadow"
   id="feBlend7" />
      <feBlend
   in="SourceGraphic"
   in2="effect1_dropShadow"
   result="shape"
   id="feBlend8" />
    </filter>
    <mask
   id="b"
   width="100"
   height="100"
   x="0"
   y="0"
   mask-type="alpha"
   maskUnits="userSpaceOnUse">
      <path
   fill="#ffffff"
   fill-rule="evenodd"
   d="M70.912 99.317a6.223 6.223 0 0 0 4.961-.191l20.588-9.906A6.252 6.252 0 0 0 100 83.587V16.413a6.25 6.25 0 0 0-3.539-5.632L75.873.874a6.228 6.228 0 0 0-7.104 1.21L29.355 38.041 12.187 25.01a4.162 4.162 0 0 0-5.318.236l-5.506 5.009a4.168 4.168 0 0 0-.004 6.162L16.247 50 1.358 63.583a4.168 4.168 0 0 0 .005 6.162l5.506 5.009a4.161 4.161 0 0 0 5.318.236l17.168-13.031 39.414 35.958a6.226 6.226 0 0 0 2.143 1.4Zm4.103-72.018L45.109 50l29.906 22.701Z"
   clip-rule="evenodd"
   id="path8" />
    </mask>
  <style
   id="current-color-scheme"
   type="text/css">
   .ColorScheme-Text { color:#444444; } .ColorScheme-Highlight { color:#4285f4; } .ColorScheme-NeutralText { color:#ff9800; } .ColorScheme-PositiveText { color:#4caf50; } .ColorScheme-NegativeText { color:#f44336; }
  </style></defs>
  <path
   fill="#cccccc"
   d="M0 116.68h266.66V0H33.328C14.999 0 0 14.996 0 33.346Z"
   id="path9" />
  <path
   fill="#999999"
   d="M533.34 0H266.66v116.68h266.68Z"
   id="path10" />
  <path
   fill="#666666"
   d="M800 116.68H533.34V0h233.34C785 0 800 14.996 800 33.346Z"
   id="path11" />
  <path
   fill="url(#a)"
   d="M766.68 600H33.328C14.999 600 0 585 0 566.66V100h800v466.66C800 585 785 600 766.68 600Z"
   id="path12" />
  <path
   fill="#999999"
   d="M205.41 299.65 32.443 472.59c-9.829 9.84-9.829 23.58 0 31.45l35.377 35.38c9.828 9.82 23.595 9.82 31.449 0L272.22 366.47c9.83-9.83 9.83-23.6 0-31.45l-35.38-35.37c-7.86-7.85-23.58-7.85-31.43 0Z"
   filter="url(#filter0_dd)"
   id="path13" />
  <path
   fill="#cccccc"
   d="M99.269 162.07 272.22 335.02c9.83 9.83 9.83 23.59 0 31.45l-35.38 35.38c-9.82 9.83-23.58 9.83-31.43 0L32.443 228.89c-9.829-9.82-9.829-23.59 0-31.45l35.377-35.37c7.86-7.86 23.595-7.86 31.449 0Z"
   filter="url(#filter0_dd)"
   id="path14" />
  
<path
   style="fill:#666666;stroke-width:57.1497;fill-opacity:1"
   class="ColorScheme-Text"
   d="M 624.04,281.05 C 521.17,281.05 437.72,369.07 426.29,483.37 408.02,486.81 395.44,498.8 395.44,538.23 395.44,565.67 422.29,619.38 462.31,623.39 A 171.45,257.16 0 0 0 624.04,795.4 171.45,257.16 0 0 0 785.77,623.39 C 825.7,619.38 852.6,565.67 852.6,538.23 852.6,498.8 840.2,486.81 821.7,483.37 810.4,369.07 726.91,281.05 624.04,281.05 Z M 496.02,795.97 C 344.01,798.84 223.99,847.98 223.99,909.7 V 966.8 C 223.99,998.3 249.71,1024 281.14,1024 H 966.9 C 998.4,1024 1024,998.3 1024,966.8 V 909.7 C 1024,847.98 903.5,798.84 752.05,795.97 718.34,830.84 675.46,852.55 624.04,852.55 572.61,852.55 529.74,830.84 496.02,795.97 Z"
   id="path1" /></svg>
